# xmcd
#
# Track frame offsets: 
#        150
#        9045
#        26619
#        43977
#        53415
#        70282
#        80035
#        88533
#        100354
#        108735
#        119544
#        139399
#
# Disc length: 2069 seconds
#
# Revision: 0
# Processed by: cddbd v1.5.2PL0 Copyright (c) Steve Scherf et al.
# Submitted via: ExactAudioCopy v0.99pb4
#
DISCID=a208130c
DTITLE=J-Green - Da Caper (Remastered)
DYEAR=2010
DGENRE=Gangsta Rap
TTITLE0=Intro
TTITLE1=You's A Fool Mane
TTITLE2=Yes Sur
TTITLE3=Triggamane
TTITLE4=Pounds Of That Weed
TTITLE5=5,6 Crucifix
TTITLE6=The Scheme (Skit)
TTITLE7=Got Away Clean
TTITLE8=Funkyride (Dedication)
TTITLE9=Hustlin' Feat Lil Money
TTITLE10=Da Boss Feat Trigg Mafia
TTITLE11=Get A Lil Smoke 2005
EXTD=
EXTT0=
EXTT1=
EXTT2=
EXTT3=
EXTT4=
EXTT5=
EXTT6=
EXTT7=
EXTT8=
EXTT9=
EXTT10=
EXTT11=
PLAYORDER=
